<mxfile host="app.diagrams.net" agent="Mozilla/5.0 (Windows NT 10.0; Win64; x64) AppleWebKit/537.36 (KHTML, like Gecko) Chrome/140.0.0.0 Safari/537.36" version="28.2.5">
  <diagram name="Page-1" id="cdMoMALlZJhh0rMfwUI2">
    <mxGraphModel dx="2078" dy="924" grid="0" gridSize="10" guides="1" tooltips="1" connect="1" arrows="1" fold="1" page="0" pageScale="1" pageWidth="850" pageHeight="1100" math="0" shadow="0">
      <root>
        <mxCell id="0" />
        <mxCell id="1" parent="0" />
        <mxCell id="Nxj7P1FDlBH2-qxjAzaY-1" value="Fabrication Department" style="shape=cube;whiteSpace=wrap;html=1;boundedLbl=1;backgroundOutline=1;darkOpacity=0.05;darkOpacity2=0.1;fillColor=#dae8fc;strokeColor=#6c8ebf;" vertex="1" parent="1">
          <mxGeometry x="-120" y="240" width="120" height="80" as="geometry" />
        </mxCell>
        <mxCell id="Nxj7P1FDlBH2-qxjAzaY-2" value="Machine Shop Department" style="shape=cube;whiteSpace=wrap;html=1;boundedLbl=1;backgroundOutline=1;darkOpacity=0.05;darkOpacity2=0.1;fillColor=#dae8fc;strokeColor=#6c8ebf;" vertex="1" parent="1">
          <mxGeometry x="-120" y="640" width="120" height="80" as="geometry" />
        </mxCell>
        <mxCell id="Nxj7P1FDlBH2-qxjAzaY-3" value="Quality Department" style="shape=cube;whiteSpace=wrap;html=1;boundedLbl=1;backgroundOutline=1;darkOpacity=0.05;darkOpacity2=0.1;fillColor=#dae8fc;strokeColor=#6c8ebf;" vertex="1" parent="1">
          <mxGeometry x="1040" y="240" width="120" height="80" as="geometry" />
        </mxCell>
        <mxCell id="Nxj7P1FDlBH2-qxjAzaY-4" value="Shipping Department" style="shape=cube;whiteSpace=wrap;html=1;boundedLbl=1;backgroundOutline=1;darkOpacity=0.05;darkOpacity2=0.1;fillColor=#dae8fc;strokeColor=#6c8ebf;" vertex="1" parent="1">
          <mxGeometry x="1040" y="640" width="120" height="80" as="geometry" />
        </mxCell>
        <mxCell id="Nxj7P1FDlBH2-qxjAzaY-9" value="View Production Records" style="rounded=1;whiteSpace=wrap;html=1;fillColor=#dae8fc;strokeColor=default;" vertex="1" parent="1">
          <mxGeometry x="840" y="120" width="80" height="120" as="geometry" />
        </mxCell>
        <mxCell id="Nxj7P1FDlBH2-qxjAzaY-17" value="" style="shape=partialRectangle;whiteSpace=wrap;html=1;bottom=0;right=0;fillColor=#dae8fc;strokeColor=default;" vertex="1" parent="1">
          <mxGeometry x="400" y="450" width="240" height="60" as="geometry" />
        </mxCell>
        <mxCell id="Nxj7P1FDlBH2-qxjAzaY-18" value="" style="endArrow=none;html=1;rounded=0;exitX=0;exitY=1;exitDx=0;exitDy=0;entryX=1;entryY=1;entryDx=0;entryDy=0;" edge="1" parent="1" source="Nxj7P1FDlBH2-qxjAzaY-17" target="Nxj7P1FDlBH2-qxjAzaY-17">
          <mxGeometry width="50" height="50" relative="1" as="geometry">
            <mxPoint x="400" y="480" as="sourcePoint" />
            <mxPoint x="450" y="430" as="targetPoint" />
          </mxGeometry>
        </mxCell>
        <mxCell id="Nxj7P1FDlBH2-qxjAzaY-19" value="" style="endArrow=none;html=1;rounded=0;exitX=0.25;exitY=1;exitDx=0;exitDy=0;entryX=0.25;entryY=0;entryDx=0;entryDy=0;" edge="1" parent="1" source="Nxj7P1FDlBH2-qxjAzaY-17" target="Nxj7P1FDlBH2-qxjAzaY-17">
          <mxGeometry width="50" height="50" relative="1" as="geometry">
            <mxPoint x="400" y="480" as="sourcePoint" />
            <mxPoint x="450" y="430" as="targetPoint" />
          </mxGeometry>
        </mxCell>
        <mxCell id="Nxj7P1FDlBH2-qxjAzaY-20" value="D1" style="text;html=1;align=center;verticalAlign=middle;whiteSpace=wrap;rounded=0;" vertex="1" parent="1">
          <mxGeometry x="415" y="465" width="20" height="25" as="geometry" />
        </mxCell>
        <mxCell id="Nxj7P1FDlBH2-qxjAzaY-21" value="Production Records" style="text;html=1;align=center;verticalAlign=middle;whiteSpace=wrap;rounded=0;" vertex="1" parent="1">
          <mxGeometry x="480" y="465" width="60" height="30" as="geometry" />
        </mxCell>
        <mxCell id="Nxj7P1FDlBH2-qxjAzaY-22" value="" style="endArrow=none;html=1;rounded=0;entryX=1;entryY=0.25;entryDx=0;entryDy=0;exitX=0;exitY=0.25;exitDx=0;exitDy=0;" edge="1" parent="1" source="Nxj7P1FDlBH2-qxjAzaY-9" target="Nxj7P1FDlBH2-qxjAzaY-9">
          <mxGeometry width="50" height="50" relative="1" as="geometry">
            <mxPoint x="580" y="210" as="sourcePoint" />
            <mxPoint x="630" y="160" as="targetPoint" />
          </mxGeometry>
        </mxCell>
        <mxCell id="Nxj7P1FDlBH2-qxjAzaY-23" value="View Production Records" style="rounded=1;whiteSpace=wrap;html=1;fillColor=#dae8fc;strokeColor=default;" vertex="1" parent="1">
          <mxGeometry x="120" y="120" width="80" height="120" as="geometry" />
        </mxCell>
        <mxCell id="Nxj7P1FDlBH2-qxjAzaY-24" value="" style="endArrow=none;html=1;rounded=0;entryX=1;entryY=0.25;entryDx=0;entryDy=0;exitX=0;exitY=0.25;exitDx=0;exitDy=0;" edge="1" parent="1" source="Nxj7P1FDlBH2-qxjAzaY-23" target="Nxj7P1FDlBH2-qxjAzaY-23">
          <mxGeometry width="50" height="50" relative="1" as="geometry">
            <mxPoint x="-140" y="210" as="sourcePoint" />
            <mxPoint x="-90" y="160" as="targetPoint" />
          </mxGeometry>
        </mxCell>
        <mxCell id="Nxj7P1FDlBH2-qxjAzaY-25" value="Modify Production Records" style="rounded=1;whiteSpace=wrap;html=1;fillColor=#dae8fc;strokeColor=default;" vertex="1" parent="1">
          <mxGeometry x="120" y="320" width="80" height="120" as="geometry" />
        </mxCell>
        <mxCell id="Nxj7P1FDlBH2-qxjAzaY-26" value="" style="endArrow=none;html=1;rounded=0;entryX=1;entryY=0.25;entryDx=0;entryDy=0;exitX=0;exitY=0.25;exitDx=0;exitDy=0;" edge="1" parent="1" source="Nxj7P1FDlBH2-qxjAzaY-25" target="Nxj7P1FDlBH2-qxjAzaY-25">
          <mxGeometry width="50" height="50" relative="1" as="geometry">
            <mxPoint x="-140" y="410" as="sourcePoint" />
            <mxPoint x="-90" y="360" as="targetPoint" />
          </mxGeometry>
        </mxCell>
        <mxCell id="Nxj7P1FDlBH2-qxjAzaY-27" value="1" style="text;html=1;align=center;verticalAlign=middle;whiteSpace=wrap;rounded=0;" vertex="1" parent="1">
          <mxGeometry x="145" y="120" width="30" height="30" as="geometry" />
        </mxCell>
        <mxCell id="Nxj7P1FDlBH2-qxjAzaY-28" value="2" style="text;html=1;align=center;verticalAlign=middle;whiteSpace=wrap;rounded=0;" vertex="1" parent="1">
          <mxGeometry x="145" y="320" width="30" height="30" as="geometry" />
        </mxCell>
        <mxCell id="Nxj7P1FDlBH2-qxjAzaY-29" value="5" style="text;html=1;align=center;verticalAlign=middle;whiteSpace=wrap;rounded=0;" vertex="1" parent="1">
          <mxGeometry x="865" y="120" width="30" height="30" as="geometry" />
        </mxCell>
        <mxCell id="Nxj7P1FDlBH2-qxjAzaY-30" value="Team 2 Production Data Information System LVL 1 DFD" style="text;html=1;align=center;verticalAlign=middle;whiteSpace=wrap;rounded=0;" vertex="1" parent="1">
          <mxGeometry x="-160" y="10" width="190" height="30" as="geometry" />
        </mxCell>
        <mxCell id="Nxj7P1FDlBH2-qxjAzaY-35" value="View Production Records" style="rounded=1;whiteSpace=wrap;html=1;fillColor=#dae8fc;strokeColor=default;" vertex="1" parent="1">
          <mxGeometry x="120" y="720" width="80" height="120" as="geometry" />
        </mxCell>
        <mxCell id="Nxj7P1FDlBH2-qxjAzaY-36" value="" style="endArrow=none;html=1;rounded=0;entryX=1;entryY=0.25;entryDx=0;entryDy=0;exitX=0;exitY=0.25;exitDx=0;exitDy=0;" edge="1" parent="1" source="Nxj7P1FDlBH2-qxjAzaY-35" target="Nxj7P1FDlBH2-qxjAzaY-35">
          <mxGeometry width="50" height="50" relative="1" as="geometry">
            <mxPoint x="-140" y="810" as="sourcePoint" />
            <mxPoint x="-90" y="760" as="targetPoint" />
          </mxGeometry>
        </mxCell>
        <mxCell id="Nxj7P1FDlBH2-qxjAzaY-37" value="3" style="text;html=1;align=center;verticalAlign=middle;whiteSpace=wrap;rounded=0;" vertex="1" parent="1">
          <mxGeometry x="145" y="720" width="30" height="30" as="geometry" />
        </mxCell>
        <mxCell id="Nxj7P1FDlBH2-qxjAzaY-38" value="Modify Production Records" style="rounded=1;whiteSpace=wrap;html=1;fillColor=#dae8fc;strokeColor=default;" vertex="1" parent="1">
          <mxGeometry x="120" y="520" width="80" height="120" as="geometry" />
        </mxCell>
        <mxCell id="Nxj7P1FDlBH2-qxjAzaY-39" value="" style="endArrow=none;html=1;rounded=0;entryX=1;entryY=0.25;entryDx=0;entryDy=0;exitX=0;exitY=0.25;exitDx=0;exitDy=0;" edge="1" parent="1" source="Nxj7P1FDlBH2-qxjAzaY-38" target="Nxj7P1FDlBH2-qxjAzaY-38">
          <mxGeometry width="50" height="50" relative="1" as="geometry">
            <mxPoint x="-140" y="610" as="sourcePoint" />
            <mxPoint x="-90" y="560" as="targetPoint" />
          </mxGeometry>
        </mxCell>
        <mxCell id="Nxj7P1FDlBH2-qxjAzaY-40" value="4" style="text;html=1;align=center;verticalAlign=middle;whiteSpace=wrap;rounded=0;" vertex="1" parent="1">
          <mxGeometry x="145" y="520" width="30" height="30" as="geometry" />
        </mxCell>
        <mxCell id="Nxj7P1FDlBH2-qxjAzaY-59" value="" style="endArrow=classic;html=1;rounded=0;exitX=0.248;exitY=-0.004;exitDx=0;exitDy=0;exitPerimeter=0;entryX=0;entryY=0.25;entryDx=0;entryDy=0;" edge="1" parent="1" source="Nxj7P1FDlBH2-qxjAzaY-1" target="Nxj7P1FDlBH2-qxjAzaY-23">
          <mxGeometry width="50" height="50" relative="1" as="geometry">
            <mxPoint x="190" y="300" as="sourcePoint" />
            <mxPoint x="240" y="250" as="targetPoint" />
            <Array as="points">
              <mxPoint x="-90" y="150" />
            </Array>
          </mxGeometry>
        </mxCell>
        <mxCell id="Nxj7P1FDlBH2-qxjAzaY-60" value="" style="endArrow=classic;html=1;rounded=0;exitX=0;exitY=0.5;exitDx=0;exitDy=0;entryX=0.667;entryY=0;entryDx=0;entryDy=0;entryPerimeter=0;" edge="1" parent="1" source="Nxj7P1FDlBH2-qxjAzaY-23" target="Nxj7P1FDlBH2-qxjAzaY-1">
          <mxGeometry width="50" height="50" relative="1" as="geometry">
            <mxPoint x="190" y="300" as="sourcePoint" />
            <mxPoint x="-50" y="238" as="targetPoint" />
            <Array as="points">
              <mxPoint x="-40" y="180" />
            </Array>
          </mxGeometry>
        </mxCell>
        <mxCell id="Nxj7P1FDlBH2-qxjAzaY-64" value="" style="endArrow=classic;html=1;rounded=0;exitX=1;exitY=0.25;exitDx=0;exitDy=0;entryX=0.125;entryY=0;entryDx=0;entryDy=0;entryPerimeter=0;" edge="1" parent="1" source="Nxj7P1FDlBH2-qxjAzaY-23" target="Nxj7P1FDlBH2-qxjAzaY-17">
          <mxGeometry width="50" height="50" relative="1" as="geometry">
            <mxPoint x="190" y="300" as="sourcePoint" />
            <mxPoint x="430" y="330" as="targetPoint" />
            <Array as="points">
              <mxPoint x="430" y="150" />
            </Array>
          </mxGeometry>
        </mxCell>
        <mxCell id="Nxj7P1FDlBH2-qxjAzaY-65" value="" style="endArrow=classic;html=1;rounded=0;entryX=1;entryY=0.5;entryDx=0;entryDy=0;exitX=0.042;exitY=0;exitDx=0;exitDy=0;exitPerimeter=0;" edge="1" parent="1" source="Nxj7P1FDlBH2-qxjAzaY-17" target="Nxj7P1FDlBH2-qxjAzaY-23">
          <mxGeometry width="50" height="50" relative="1" as="geometry">
            <mxPoint x="410" y="380" as="sourcePoint" />
            <mxPoint x="240" y="250" as="targetPoint" />
            <Array as="points">
              <mxPoint x="410" y="180" />
            </Array>
          </mxGeometry>
        </mxCell>
        <mxCell id="Nxj7P1FDlBH2-qxjAzaY-67" value="REQUEST RECORD DATA" style="text;html=1;align=center;verticalAlign=middle;whiteSpace=wrap;rounded=0;" vertex="1" parent="1">
          <mxGeometry x="-60" y="120" width="120" height="30" as="geometry" />
        </mxCell>
        <mxCell id="Nxj7P1FDlBH2-qxjAzaY-68" value="SQL SELECT QUERY" style="text;html=1;align=center;verticalAlign=middle;whiteSpace=wrap;rounded=0;" vertex="1" parent="1">
          <mxGeometry x="280" y="120" width="130" height="30" as="geometry" />
        </mxCell>
        <mxCell id="Nxj7P1FDlBH2-qxjAzaY-69" value="SQL QUERY RESULTS" style="text;html=1;align=center;verticalAlign=middle;whiteSpace=wrap;rounded=0;" vertex="1" parent="1">
          <mxGeometry x="260" y="180" width="130" height="30" as="geometry" />
        </mxCell>
        <mxCell id="Nxj7P1FDlBH2-qxjAzaY-70" value="RECORD DATA" style="text;html=1;align=center;verticalAlign=middle;whiteSpace=wrap;rounded=0;" vertex="1" parent="1">
          <mxGeometry y="180" width="90" height="30" as="geometry" />
        </mxCell>
        <mxCell id="Nxj7P1FDlBH2-qxjAzaY-71" value="" style="endArrow=classic;html=1;rounded=0;exitX=0;exitY=0;exitDx=70;exitDy=80;exitPerimeter=0;entryX=0;entryY=0.5;entryDx=0;entryDy=0;" edge="1" parent="1" source="Nxj7P1FDlBH2-qxjAzaY-1" target="Nxj7P1FDlBH2-qxjAzaY-25">
          <mxGeometry width="50" height="50" relative="1" as="geometry">
            <mxPoint x="290" y="360" as="sourcePoint" />
            <mxPoint x="340" y="310" as="targetPoint" />
            <Array as="points">
              <mxPoint x="-50" y="380" />
            </Array>
          </mxGeometry>
        </mxCell>
        <mxCell id="Nxj7P1FDlBH2-qxjAzaY-72" value="MODIFIED RECORD DATA" style="text;html=1;align=center;verticalAlign=middle;whiteSpace=wrap;rounded=0;" vertex="1" parent="1">
          <mxGeometry x="-20" y="350" width="120" height="30" as="geometry" />
        </mxCell>
        <mxCell id="Nxj7P1FDlBH2-qxjAzaY-73" value="" style="endArrow=classic;html=1;rounded=0;exitX=1;exitY=0.5;exitDx=0;exitDy=0;entryX=0;entryY=0.167;entryDx=0;entryDy=0;entryPerimeter=0;" edge="1" parent="1" source="Nxj7P1FDlBH2-qxjAzaY-25" target="Nxj7P1FDlBH2-qxjAzaY-17">
          <mxGeometry width="50" height="50" relative="1" as="geometry">
            <mxPoint x="290" y="360" as="sourcePoint" />
            <mxPoint x="340" y="310" as="targetPoint" />
            <Array as="points">
              <mxPoint x="260" y="380" />
              <mxPoint x="260" y="460" />
            </Array>
          </mxGeometry>
        </mxCell>
        <mxCell id="Nxj7P1FDlBH2-qxjAzaY-74" value="INSERT UPDATE DELETE QUERY" style="text;html=1;align=center;verticalAlign=middle;whiteSpace=wrap;rounded=0;" vertex="1" parent="1">
          <mxGeometry x="260" y="430" width="120" height="30" as="geometry" />
        </mxCell>
        <mxCell id="Nxj7P1FDlBH2-qxjAzaY-76" value="" style="endArrow=classic;html=1;rounded=0;exitX=0;exitY=0;exitDx=50;exitDy=0;exitPerimeter=0;entryX=0;entryY=0.5;entryDx=0;entryDy=0;" edge="1" parent="1" source="Nxj7P1FDlBH2-qxjAzaY-2" target="Nxj7P1FDlBH2-qxjAzaY-38">
          <mxGeometry width="50" height="50" relative="1" as="geometry">
            <mxPoint x="50" y="540" as="sourcePoint" />
            <mxPoint x="100" y="490" as="targetPoint" />
            <Array as="points">
              <mxPoint x="-70" y="580" />
            </Array>
          </mxGeometry>
        </mxCell>
        <mxCell id="Nxj7P1FDlBH2-qxjAzaY-77" value="MODIFIED RECORD DATA" style="text;html=1;align=center;verticalAlign=middle;whiteSpace=wrap;rounded=0;" vertex="1" parent="1">
          <mxGeometry x="-20" y="580" width="120" height="30" as="geometry" />
        </mxCell>
        <mxCell id="Nxj7P1FDlBH2-qxjAzaY-78" value="" style="endArrow=classic;html=1;rounded=0;exitX=1;exitY=0.5;exitDx=0;exitDy=0;entryX=0;entryY=0.833;entryDx=0;entryDy=0;entryPerimeter=0;" edge="1" parent="1" source="Nxj7P1FDlBH2-qxjAzaY-38" target="Nxj7P1FDlBH2-qxjAzaY-17">
          <mxGeometry width="50" height="50" relative="1" as="geometry">
            <mxPoint x="50" y="540" as="sourcePoint" />
            <mxPoint x="100" y="490" as="targetPoint" />
            <Array as="points">
              <mxPoint x="260" y="580" />
              <mxPoint x="260" y="500" />
            </Array>
          </mxGeometry>
        </mxCell>
        <mxCell id="Nxj7P1FDlBH2-qxjAzaY-79" value="INSERT UPDATE DELETE QUERY" style="text;html=1;align=center;verticalAlign=middle;whiteSpace=wrap;rounded=0;" vertex="1" parent="1">
          <mxGeometry x="265" y="505" width="120" height="30" as="geometry" />
        </mxCell>
        <mxCell id="Nxj7P1FDlBH2-qxjAzaY-80" value="" style="endArrow=classic;html=1;rounded=0;entryX=0;entryY=0.75;entryDx=0;entryDy=0;exitX=0.339;exitY=1.009;exitDx=0;exitDy=0;exitPerimeter=0;" edge="1" parent="1" source="Nxj7P1FDlBH2-qxjAzaY-2" target="Nxj7P1FDlBH2-qxjAzaY-35">
          <mxGeometry width="50" height="50" relative="1" as="geometry">
            <mxPoint x="-100" y="800" as="sourcePoint" />
            <mxPoint x="100" y="660" as="targetPoint" />
            <Array as="points">
              <mxPoint x="-80" y="810" />
            </Array>
          </mxGeometry>
        </mxCell>
        <mxCell id="Nxj7P1FDlBH2-qxjAzaY-81" value="REQUEST RECORD DATA" style="text;html=1;align=center;verticalAlign=middle;whiteSpace=wrap;rounded=0;" vertex="1" parent="1">
          <mxGeometry x="-40" y="810" width="120" height="30" as="geometry" />
        </mxCell>
        <mxCell id="Nxj7P1FDlBH2-qxjAzaY-82" value="" style="endArrow=classic;html=1;rounded=0;exitX=1;exitY=0.75;exitDx=0;exitDy=0;" edge="1" parent="1" source="Nxj7P1FDlBH2-qxjAzaY-35">
          <mxGeometry width="50" height="50" relative="1" as="geometry">
            <mxPoint x="50" y="710" as="sourcePoint" />
            <mxPoint x="430" y="510" as="targetPoint" />
            <Array as="points">
              <mxPoint x="430" y="810" />
            </Array>
          </mxGeometry>
        </mxCell>
        <mxCell id="Nxj7P1FDlBH2-qxjAzaY-84" value="" style="endArrow=classic;html=1;rounded=0;entryX=0.835;entryY=1.016;entryDx=0;entryDy=0;entryPerimeter=0;exitX=0;exitY=0.417;exitDx=0;exitDy=0;exitPerimeter=0;" edge="1" parent="1" source="Nxj7P1FDlBH2-qxjAzaY-35" target="Nxj7P1FDlBH2-qxjAzaY-2">
          <mxGeometry width="50" height="50" relative="1" as="geometry">
            <mxPoint x="110" y="770" as="sourcePoint" />
            <mxPoint x="-20" y="730" as="targetPoint" />
            <Array as="points">
              <mxPoint x="-20" y="770" />
            </Array>
          </mxGeometry>
        </mxCell>
        <mxCell id="Nxj7P1FDlBH2-qxjAzaY-85" value="RECORD DATA" style="text;html=1;align=center;verticalAlign=middle;whiteSpace=wrap;rounded=0;" vertex="1" parent="1">
          <mxGeometry x="10" y="740" width="90" height="30" as="geometry" />
        </mxCell>
        <mxCell id="Nxj7P1FDlBH2-qxjAzaY-87" value="" style="endArrow=classic;html=1;rounded=0;" edge="1" parent="1">
          <mxGeometry width="50" height="50" relative="1" as="geometry">
            <mxPoint x="410" y="510" as="sourcePoint" />
            <mxPoint x="200" y="769" as="targetPoint" />
            <Array as="points">
              <mxPoint x="410" y="770" />
            </Array>
          </mxGeometry>
        </mxCell>
        <mxCell id="Nxj7P1FDlBH2-qxjAzaY-88" value="SQL QUERY RESULTS" style="text;html=1;align=center;verticalAlign=middle;whiteSpace=wrap;rounded=0;" vertex="1" parent="1">
          <mxGeometry x="250" y="740" width="130" height="30" as="geometry" />
        </mxCell>
        <mxCell id="Nxj7P1FDlBH2-qxjAzaY-89" value="SQL SELECT QUERY" style="text;html=1;align=center;verticalAlign=middle;whiteSpace=wrap;rounded=0;" vertex="1" parent="1">
          <mxGeometry x="280" y="810" width="130" height="30" as="geometry" />
        </mxCell>
        <mxCell id="Nxj7P1FDlBH2-qxjAzaY-97" value="View Production Records" style="rounded=1;whiteSpace=wrap;html=1;fillColor=#dae8fc;strokeColor=default;" vertex="1" parent="1">
          <mxGeometry x="850" y="720" width="80" height="120" as="geometry" />
        </mxCell>
        <mxCell id="Nxj7P1FDlBH2-qxjAzaY-98" value="" style="endArrow=none;html=1;rounded=0;entryX=1;entryY=0.25;entryDx=0;entryDy=0;exitX=0;exitY=0.25;exitDx=0;exitDy=0;" edge="1" parent="1" source="Nxj7P1FDlBH2-qxjAzaY-97" target="Nxj7P1FDlBH2-qxjAzaY-97">
          <mxGeometry width="50" height="50" relative="1" as="geometry">
            <mxPoint x="590" y="810" as="sourcePoint" />
            <mxPoint x="640" y="760" as="targetPoint" />
          </mxGeometry>
        </mxCell>
        <mxCell id="Nxj7P1FDlBH2-qxjAzaY-99" value="6" style="text;html=1;align=center;verticalAlign=middle;whiteSpace=wrap;rounded=0;" vertex="1" parent="1">
          <mxGeometry x="875" y="720" width="30" height="30" as="geometry" />
        </mxCell>
        <mxCell id="Nxj7P1FDlBH2-qxjAzaY-101" value="" style="endArrow=classic;html=1;rounded=0;exitX=0.667;exitY=0;exitDx=0;exitDy=0;exitPerimeter=0;" edge="1" parent="1" source="Nxj7P1FDlBH2-qxjAzaY-3">
          <mxGeometry width="50" height="50" relative="1" as="geometry">
            <mxPoint x="1120" y="230" as="sourcePoint" />
            <mxPoint x="920" y="150" as="targetPoint" />
            <Array as="points">
              <mxPoint x="1120" y="150" />
            </Array>
          </mxGeometry>
        </mxCell>
        <mxCell id="Nxj7P1FDlBH2-qxjAzaY-102" value="" style="endArrow=classic;html=1;rounded=0;exitX=0;exitY=0.25;exitDx=0;exitDy=0;entryX=0.877;entryY=-0.011;entryDx=0;entryDy=0;entryPerimeter=0;" edge="1" parent="1" source="Nxj7P1FDlBH2-qxjAzaY-9" target="Nxj7P1FDlBH2-qxjAzaY-17">
          <mxGeometry width="50" height="50" relative="1" as="geometry">
            <mxPoint x="850" y="290" as="sourcePoint" />
            <mxPoint x="610" y="440" as="targetPoint" />
            <Array as="points">
              <mxPoint x="610" y="150" />
            </Array>
          </mxGeometry>
        </mxCell>
        <mxCell id="Nxj7P1FDlBH2-qxjAzaY-103" value="REQUEST RECORD DATA" style="text;html=1;align=center;verticalAlign=middle;whiteSpace=wrap;rounded=0;" vertex="1" parent="1">
          <mxGeometry x="960" y="120" width="120" height="30" as="geometry" />
        </mxCell>
        <mxCell id="Nxj7P1FDlBH2-qxjAzaY-104" value="SQL SELECT QUERY" style="text;html=1;align=center;verticalAlign=middle;whiteSpace=wrap;rounded=0;" vertex="1" parent="1">
          <mxGeometry x="640" y="120" width="130" height="30" as="geometry" />
        </mxCell>
        <mxCell id="Nxj7P1FDlBH2-qxjAzaY-105" value="" style="endArrow=classic;html=1;rounded=0;entryX=0;entryY=0.5;entryDx=0;entryDy=0;" edge="1" parent="1" target="Nxj7P1FDlBH2-qxjAzaY-9">
          <mxGeometry width="50" height="50" relative="1" as="geometry">
            <mxPoint x="630" y="450" as="sourcePoint" />
            <mxPoint x="630" y="240" as="targetPoint" />
            <Array as="points">
              <mxPoint x="630" y="180" />
            </Array>
          </mxGeometry>
        </mxCell>
        <mxCell id="Nxj7P1FDlBH2-qxjAzaY-106" value="SQL QUERY RESULTS" style="text;html=1;align=center;verticalAlign=middle;whiteSpace=wrap;rounded=0;" vertex="1" parent="1">
          <mxGeometry x="640" y="180" width="130" height="30" as="geometry" />
        </mxCell>
        <mxCell id="Nxj7P1FDlBH2-qxjAzaY-107" value="" style="endArrow=classic;html=1;rounded=0;exitX=1;exitY=0.5;exitDx=0;exitDy=0;entryX=0.168;entryY=-0.013;entryDx=0;entryDy=0;entryPerimeter=0;" edge="1" parent="1" source="Nxj7P1FDlBH2-qxjAzaY-9" target="Nxj7P1FDlBH2-qxjAzaY-3">
          <mxGeometry width="50" height="50" relative="1" as="geometry">
            <mxPoint x="860" y="290" as="sourcePoint" />
            <mxPoint x="1060" y="230" as="targetPoint" />
            <Array as="points">
              <mxPoint x="1060" y="180" />
            </Array>
          </mxGeometry>
        </mxCell>
        <mxCell id="Nxj7P1FDlBH2-qxjAzaY-108" value="RECORD DATA" style="text;html=1;align=center;verticalAlign=middle;whiteSpace=wrap;rounded=0;" vertex="1" parent="1">
          <mxGeometry x="950" y="180" width="90" height="30" as="geometry" />
        </mxCell>
        <mxCell id="Nxj7P1FDlBH2-qxjAzaY-109" value="" style="endArrow=classic;html=1;rounded=0;entryX=1;entryY=0.5;entryDx=0;entryDy=0;exitX=0.83;exitY=0.992;exitDx=0;exitDy=0;exitPerimeter=0;" edge="1" parent="1" source="Nxj7P1FDlBH2-qxjAzaY-4" target="Nxj7P1FDlBH2-qxjAzaY-97">
          <mxGeometry width="50" height="50" relative="1" as="geometry">
            <mxPoint x="1139" y="723" as="sourcePoint" />
            <mxPoint x="1050" y="650" as="targetPoint" />
            <Array as="points">
              <mxPoint x="1140" y="780" />
            </Array>
          </mxGeometry>
        </mxCell>
        <mxCell id="Nxj7P1FDlBH2-qxjAzaY-110" value="" style="endArrow=classic;html=1;rounded=0;exitX=0;exitY=0.5;exitDx=0;exitDy=0;" edge="1" parent="1" source="Nxj7P1FDlBH2-qxjAzaY-97">
          <mxGeometry width="50" height="50" relative="1" as="geometry">
            <mxPoint x="1060" y="590" as="sourcePoint" />
            <mxPoint x="610" y="510" as="targetPoint" />
            <Array as="points">
              <mxPoint x="610" y="780" />
            </Array>
          </mxGeometry>
        </mxCell>
        <mxCell id="Nxj7P1FDlBH2-qxjAzaY-111" value="" style="endArrow=classic;html=1;rounded=0;entryX=0;entryY=0.25;entryDx=0;entryDy=0;" edge="1" parent="1" target="Nxj7P1FDlBH2-qxjAzaY-97">
          <mxGeometry width="50" height="50" relative="1" as="geometry">
            <mxPoint x="630" y="510" as="sourcePoint" />
            <mxPoint x="850" y="740" as="targetPoint" />
            <Array as="points">
              <mxPoint x="630" y="750" />
            </Array>
          </mxGeometry>
        </mxCell>
        <mxCell id="Nxj7P1FDlBH2-qxjAzaY-112" value="" style="endArrow=classic;html=1;rounded=0;exitX=1;exitY=0.25;exitDx=0;exitDy=0;entryX=0.33;entryY=1.038;entryDx=0;entryDy=0;entryPerimeter=0;" edge="1" parent="1">
          <mxGeometry width="50" height="50" relative="1" as="geometry">
            <mxPoint x="930" y="746.96" as="sourcePoint" />
            <mxPoint x="1079.6" y="720.0000000000002" as="targetPoint" />
            <Array as="points">
              <mxPoint x="1080" y="746.96" />
            </Array>
          </mxGeometry>
        </mxCell>
        <mxCell id="Nxj7P1FDlBH2-qxjAzaY-113" value="RECORD DATA" style="text;html=1;align=center;verticalAlign=middle;whiteSpace=wrap;rounded=0;" vertex="1" parent="1">
          <mxGeometry x="950" y="720" width="90" height="30" as="geometry" />
        </mxCell>
        <mxCell id="Nxj7P1FDlBH2-qxjAzaY-114" value="REQUEST RECORD DATA" style="text;html=1;align=center;verticalAlign=middle;whiteSpace=wrap;rounded=0;" vertex="1" parent="1">
          <mxGeometry x="980" y="790" width="120" height="30" as="geometry" />
        </mxCell>
        <mxCell id="Nxj7P1FDlBH2-qxjAzaY-115" value="SQL QUERY RESULTS" style="text;html=1;align=center;verticalAlign=middle;whiteSpace=wrap;rounded=0;" vertex="1" parent="1">
          <mxGeometry x="640" y="720" width="130" height="30" as="geometry" />
        </mxCell>
        <mxCell id="Nxj7P1FDlBH2-qxjAzaY-116" value="SQL SELECT QUERY" style="text;html=1;align=center;verticalAlign=middle;whiteSpace=wrap;rounded=0;" vertex="1" parent="1">
          <mxGeometry x="640" y="780" width="130" height="30" as="geometry" />
        </mxCell>
      </root>
    </mxGraphModel>
  </diagram>
</mxfile>
